Coordinates
version=1
nRows=10
nColumns=63
inDegrees=yes

Units are S.I. units (second, meters, Newtons, ...)
If the header above contains a line with 'inDegrees', this indicates whether rotational values are in degrees (yes) or radians (no).

endheader
time	pelvis_tilt	pelvis_list	pelvis_rotation	pelvis_tx	pelvis_ty	pelvis_tz	hip_flexion_r	hip_adduction_r	hip_rotation_r	knee_angle_r	knee_angle_r_beta	ankle_angle_r	subtalar_angle_r	mtp_angle_r	hip_flexion_l	hip_adduction_l	hip_rotation_l	knee_angle_l	knee_angle_l_beta	ankle_angle_l	subtalar_angle_l	mtp_angle_l	L5_S1_Flex_Ext	L5_S1_Lat_Bending	L5_S1_axial_rotation	L4_L5_Flex_Ext	L4_L5_Lat_Bending	L4_L5_axial_rotation	L3_L4_Flex_Ext	L3_L4_Lat_Bending	L3_L4_axial_rotation	L2_L3_Flex_Ext	L2_L3_Lat_Bending	L2_L3_axial_rotation	L1_L2_Flex_Ext	L1_L2_Lat_Bending	L1_L2_axial_rotation	L1_T12_Flex_Ext	L1_T12_Lat_Bending	L1_T12_axial_rotation	Abs_r3	Abs_r2	Abs_r1	Abs_t1	Abs_t2	neck_flexion	neck_bending	neck_rotation	arm_flex_r	arm_add_r	arm_rot_r	elbow_flex_r	pro_sup_r	wrist_flex_r	wrist_dev_r	arm_flex_l	arm_add_l	arm_rot_l	elbow_flex_l	pro_sup_l	wrist_flex_l	wrist_dev_l
      3.75000000	    -50.45947722	     -3.20570858	     -2.72506423	     -0.36298699	      0.98937333	      0.03639988	    130.10860045	     -8.41987887	     -4.42692853	     95.58198417	      1.66822033	      6.49682276	     -5.92437460	      0.00000000	     98.64847309	     -9.39897955	      4.04815140	     74.00598386	      1.29164808	    -10.97483619	     -0.34377505	      0.00000000	     -0.09044161	      0.26516866	      0.63612342	     -0.16795912	      0.35267432	      0.67588113	     -0.14858653	      0.64473109	      0.67588113	     -0.10336572	      0.64473109	      0.55660799	     -0.08398408	      0.54073194	      0.51685028	     -0.05167834	      0.41074626	      0.47709256	     -0.64601541	      2.99964095	      3.53792762	      0.00000000	      0.00000000	     -0.00000000	      0.00000000	      0.00000000	     68.53398117	     -9.56552623	      9.47601836	     34.31516501	     20.05909243	      0.00000000	      5.00000693	     69.10170804	     -5.06391347	      5.98753394	     33.02992390	     25.44835832	      0.00000000	      5.00000693
      3.75800000	    -50.45479649	     -3.40699628	     -2.49268515	     -0.36329747	      0.98928710	      0.03631448	    128.84105443	     -8.48598316	     -4.70361456	     93.29362735	      1.62828097	      6.78013758	     -5.60059187	      0.00000000	     99.76771638	     -9.19256037	      4.55150217	     76.36692017	      1.33285420	    -11.26489895	     -0.03816944	      0.00000000	     -0.08898171	      0.28221901	      0.61496698	     -0.16524793	      0.37535128	      0.65340242	     -0.14618805	      0.68618730	      0.65340242	     -0.10169720	      0.68618730	      0.53809611	     -0.08262842	      0.57550100	      0.49966067	     -0.05084415	      0.43715725	      0.46122524	     -0.63558746	      3.19251788	      3.42026188	      0.00000000	      0.00000000	     -0.00000000	      0.00000000	      0.00000000	     68.53142137	     -9.67837824	      9.39804564	     34.37264244	     19.95562369	      0.00000000	      5.00000677	     69.21352693	     -4.92809412	      6.25056206	     32.82199621	     25.41896062	      0.00000000	      5.00000677
      3.76700000	    -50.42301578	     -3.24514476	     -1.70471164	     -0.36360321	      0.98909709	      0.03575966	    127.79803204	     -8.81273077	     -4.28797161	     91.19978043	      1.59173645	      6.46110025	     -5.46802245	      0.00000000	    100.69461216	     -8.44471761	      4.56333503	     78.51209051	      1.37029448	    -11.17143178	      0.05859275	      0.00000000	     -0.08913379	      0.24686656	      0.47874205	     -0.16553036	      0.32833253	      0.50866343	     -0.14643790	      0.60023136	      0.50866343	     -0.10187101	      0.60023136	      0.41889930	     -0.08276964	      0.50341029	      0.38897792	     -0.05093105	      0.38239630	      0.35905654	     -0.63667375	      2.79260391	      2.66261967	      0.00000000	      0.00000000	     -0.00000000	      0.00000000	      0.00000000	     68.44654350	     -9.66195995	      9.38725335	     34.47434929	     19.93122691	      0.00000000	      5.00000673	     69.35370746	     -4.90892163	      6.29315450	     32.77573540	     25.40694258	      0.00000000	      5.00000673
      3.77500000	    -50.40991561	     -3.36062413	     -1.32251578	     -0.36392593	      0.98904118	      0.03555886	    126.45453539	     -8.97820200	     -4.43581945	     88.88498448	      1.55133563	      6.35576233	     -5.30551683	      0.00000000	    101.86596126	     -8.12907518	      4.89337523	     80.83033121	      1.41075542	    -11.24730864	      0.55201125	      0.00000000	     -0.08933633	      0.24893366	      0.42820147	     -0.16590651	      0.33108177	      0.45496406	     -0.14677066	      0.60525730	      0.45496406	     -0.10210250	      0.60525730	      0.37467628	     -0.08295772	      0.50762552	      0.34791369	     -0.05104678	      0.38559824	      0.32115110	     -0.63812050	      2.81598736	      2.38152811	      0.00000000	      0.00000000	     -0.00000000	      0.00000000	      0.00000000	     68.41087388	     -9.73050105	      9.19463369	     34.50548602	     19.82904771	      0.00000000	      5.00000660	     69.49323643	     -4.77833818	      6.48354849	     32.61925744	     25.38031368	      0.00000000	      5.00000660
      3.78300000	    -50.39143746	     -3.11114455	     -0.37373426	     -0.36425641	      0.98899529	      0.03479101	    125.32831338	     -9.53211143	     -4.00430669	     86.76945550	      1.51441269	      5.80409752	     -5.17456325	      0.00000000	    102.83612460	     -7.31222879	      4.61595309	     82.88856511	      1.44667837	    -11.05413749	      0.64176125	      0.00000000	     -0.09095859	      0.19755661	      0.27212838	     -0.16891920	      0.26275030	      0.28913640	     -0.14943587	      0.48033915	      0.28913640	     -0.10395657	      0.48033915	      0.23811233	     -0.08446415	      0.40285745	      0.22110431	     -0.05197374	      0.30601519	      0.20409628	     -0.64970812	      2.23479992	      1.51349639	      0.00000000	      0.00000000	     -0.00000000	      0.00000000	      0.00000000	     68.27985949	     -9.80793254	      9.14875798	     34.57350787	     19.81352543	      0.00000000	      5.00000658	     69.63966415	     -4.68947677	      6.52091229	     32.65969408	     25.37767031	      0.00000000	      5.00000658
      3.79200000	    -50.40595668	     -2.98060312	      0.20500154	     -0.36460498	      0.98899727	      0.03463171	    124.02177561	     -9.69024362	     -3.75588283	     84.49718975	      1.47475417	      5.33249266	     -5.11992545	      0.00000000	    103.97139154	     -6.77253350	      4.72567934	     85.07629195	      1.48486141	    -10.89976503	      0.94485725	      0.00000000	     -0.09004892	      0.16404659	      0.15408796	     -0.16722985	      0.21818197	      0.16371845	     -0.14794137	      0.39886289	      0.16371845	     -0.10291691	      0.39886289	      0.13482696	     -0.08361943	      0.33452382	      0.12519646	     -0.05145395	      0.25410817	      0.11556597	     -0.64321044	      1.85572789	      0.85699098	      0.00000000	      0.00000000	     -0.00000000	      0.00000000	      0.00000000	     68.16047046	     -9.65315254	      8.98711640	     34.67539904	     19.75748341	      0.00000000	      5.00000652	     69.79595380	     -4.81170671	      6.58313600	     32.56955625	     25.36452173	      0.00000000	      5.00000652
      3.80000000	    -50.42518039	     -3.04072914	      0.58398627	     -0.36492917	      0.98904035	      0.03444169	    122.53195792	     -9.96220889	     -4.05403268	     82.11966704	      1.43325857	      4.68235329	     -5.31595374	      0.00000000	    105.20715569	     -6.50689722	      4.98975877	     87.35067983	      1.52455697	    -10.30812132	      1.91128305	      0.00000000	     -0.09039153	      0.15596927	      0.10436153	     -0.16786610	      0.20743912	      0.11088412	     -0.14850424	      0.37922367	      0.11088412	     -0.10330847	      0.37922367	      0.09131634	     -0.08393757	      0.31805253	      0.08479374	     -0.05164972	      0.24159639	      0.07827115	     -0.64565763	      1.76435553	      0.58042751	      0.00000000	      0.00000000	     -0.00000000	      0.00000000	      0.00000000	     68.05825359	     -9.65281127	      8.28654117	     34.72392643	     19.63286190	      0.00000000	      5.00000627	     69.91915580	     -4.72393239	      6.90222681	     32.58809367	     25.39553549	      0.00000000	      5.00000627
      3.80800000	    -50.43623533	     -2.72672568	      1.51899170	     -0.36513493	      0.98897577	      0.03378932	    121.27518194	    -10.52375904	     -3.61465990	     80.04812507	      1.39710334	      4.08356975	     -5.13583920	      0.00000000	    106.28771524	     -5.77751668	      4.58568495	     89.42750284	      1.56080437	    -10.05845529	      1.97833592	      0.00000000	     -0.08939132	      0.09390874	     -0.05173577	     -0.16600862	      0.12489863	     -0.05496926	     -0.14686100	      0.22832972	     -0.05496926	     -0.10216534	      0.22832972	     -0.04526880	     -0.08300878	      0.19149871	     -0.04203531	     -0.05107820	      0.14546464	     -0.03880183	     -0.63851327	      1.06231450	     -0.28773884	      0.00000000	      0.00000000	     -0.00000000	      0.00000000	      0.00000000	     67.86745612	     -9.75282490	      8.21255462	     34.76805747	     19.71292420	      0.00000000	      5.00000621	     70.02198131	     -4.65494140	      6.93562639	     32.69698846	     25.45913879	      0.00000000	      5.00000621
      3.81700000	    -50.48527989	     -2.44380962	      1.79847606	     -0.36542392	      0.98916764	      0.03405071	    119.68611921	    -10.43365763	     -3.54926206	     77.51504789	      1.35289281	      3.52743829	     -5.33085705	      0.00000000	    107.42842046	     -5.68944675	      4.48555556	     91.54534648	      1.59776771	     -9.25299015	      2.42585859	      0.00000000	     -0.09051722	      0.04049888	     -0.11533951	     -0.16809953	      0.05386351	     -0.12254823	     -0.14871074	      0.09846897	     -0.12254823	     -0.10345213	      0.09846897	     -0.10092207	     -0.08405429	      0.08258531	     -0.09371335	     -0.05172154	      0.06273276	     -0.08650463	     -0.64655545	      0.45813140	     -0.64148374	      0.00000000	      0.00000000	     -0.00000000	      0.00000000	      0.00000000	     67.79301014	     -9.53419887	      7.65048175	     34.62316452	     19.65628788	      0.00000000	      5.00000605	     70.18321902	     -4.78986457	      7.11630174	     32.72756553	     25.50945598	      0.00000000	      5.00000605
      3.82500000	    -50.48294215	     -2.10470315	      2.65697997	     -0.36541380	      0.98892789	      0.03343575	    118.33008490	    -10.98546690	     -3.18827674	     75.52536150	      1.31816623	      2.92428704	     -5.15685851	      0.00000000	    108.59464906	     -5.07038798	      4.05206792	     93.67881479	      1.63500376	     -8.90484603	      2.48915478	      0.00000000	     -0.08940230	     -0.02172964	     -0.25940320	     -0.16602901	     -0.02890042	     -0.27561590	     -0.14687904	     -0.05283345	     -0.27561590	     -0.10217789	     -0.05283345	     -0.22697780	     -0.08301898	     -0.04431108	     -0.21076510	     -0.05108447	     -0.03365921	     -0.19455240	     -0.63859169	     -0.24581005	     -1.44272276	      0.00000000	      0.00000000	     -0.00000000	      0.00000000	      0.00000000	     67.56672840	     -9.60293681	      7.54432548	     34.67121687	     19.72341278	      0.00000000	      5.00000600	     70.24003540	     -4.74397053	      7.16580251	     32.81114817	     25.56981444	      0.00000000	      5.00000600
